<?xml version="1.0" encoding="iso-8859-1"?>
<!-- Uploaded to: SVG Repo, www.svgrepo.com, Generator: SVG Repo Mixer Tools -->
<svg height="800px" width="800px" version="1.1" id="Layer_1" xmlns="http://www.w3.org/2000/svg" xmlns:xlink="http://www.w3.org/1999/xlink" 
	 viewBox="0 0 511.983 511.983" xml:space="preserve">
<g>
	<path style="fill:#AAB2BC;" d="M490.64,287.985h-42.655c-5.89,0-10.671-4.78-10.671-10.655c0-5.898,4.781-10.68,10.671-10.68
		h42.655c5.891,0,10.672,4.781,10.672,10.68C501.312,283.205,496.531,287.985,490.64,287.985z"/>
	<path style="fill:#AAB2BC;" d="M469.312,394.638h-26.561c-5.891,0-10.672-4.749-10.672-10.655s4.781-10.656,10.672-10.656h26.561
		c5.891,0,10.672,4.75,10.672,10.656S475.203,394.638,469.312,394.638z"/>
	<path style="fill:#AAB2BC;" d="M63.998,287.985h-42.67c-5.891,0-10.656-4.78-10.656-10.655c0-5.898,4.766-10.68,10.656-10.68h42.67
		c5.89,0,10.671,4.781,10.671,10.68C74.669,283.205,69.888,287.985,63.998,287.985z"/>
	<path style="fill:#AAB2BC;" d="M69.232,394.638H42.67c-5.89,0-10.671-4.749-10.671-10.655s4.781-10.656,10.671-10.656h26.562
		c5.891,0,10.672,4.75,10.672,10.656S75.122,394.638,69.232,394.638z"/>
	<path style="fill:#AAB2BC;" d="M394.659,351.983v63.998c0,11.781,9.546,21.344,21.327,21.344s21.328-9.562,21.328-21.344v-63.998
		H394.659z"/>
	<path style="fill:#AAB2BC;" d="M74.669,351.983v63.998c0,11.781,9.546,21.344,21.328,21.344c11.781,0,21.327-9.562,21.327-21.344
		v-63.998H74.669z"/>
</g>
<path style="fill:#5D9CEC;" d="M287.99,64.001h-63.998c-5.89,0-10.671,4.766-10.671,10.656v106.668
	c0,5.891,4.781,10.672,10.671,10.672h63.998c5.891,0,10.672-4.781,10.672-10.672V74.657
	C298.662,68.766,293.881,64.001,287.99,64.001z"/>
<g>
	<path style="fill:#434A54;" d="M255.991,447.981c-62.451,0-101.372-33.188-102.997-34.625c-3.359-2.906-4.547-7.594-2.984-11.78
		c1.547-4.156,5.531-6.938,9.984-6.938h191.994c4.453,0,8.438,2.781,9.984,6.938c1.562,4.187,0.375,8.874-2.984,11.78
		C357.363,414.794,318.443,447.981,255.991,447.981z"/>
	<path style="fill:#434A54;" d="M469.328,415.981c-0.656,0-1.312-0.062-1.984-0.188c-5.78-1.094-9.593-6.656-8.515-12.437
		l31.999-170.674c1.094-5.781,6.656-9.609,12.453-8.515c5.78,1.094,9.608,6.656,8.515,12.452l-31.999,170.674
		C478.844,412.419,474.359,415.981,469.328,415.981z"/>
	<path style="fill:#434A54;" d="M42.655,415.981c-5.031,0-9.515-3.562-10.468-8.688l-32-170.673
		c-1.094-5.796,2.719-11.358,8.515-12.452c5.797-1.094,11.359,2.734,12.453,8.515l31.999,170.674
		c1.078,5.78-2.734,11.343-8.531,12.437C43.967,415.919,43.311,415.981,42.655,415.981z"/>
	<path style="fill:#434A54;" d="M433.72,211.043l-42.671-37.717c-1.953-1.719-4.468-2.672-7.062-2.672H127.996
		c-2.609,0-5.109,0.953-7.062,2.672l-42.67,37.717c-3.312,2.938-4.484,7.625-2.906,11.766c1.562,4.14,5.547,6.89,9.968,6.89h341.317
		c4.438,0,8.406-2.75,9.984-6.89C438.189,218.668,437.033,213.98,433.72,211.043z"/>
</g>
<g>
	<path style="fill:#4A89DC;" d="M263.539,146.201c-4.172,4.172-10.922,4.172-15.094,0c-4.156-4.171-4.156-10.921,0-15.077
		c4.171-4.172,10.922-4.172,15.094,0C267.694,135.28,267.694,142.03,263.539,146.201z"/>
	<path style="fill:#4A89DC;" d="M263.539,114.202c-4.172,4.172-10.922,4.172-15.094,0c-4.156-4.171-4.156-10.921,0-15.077
		c4.171-4.172,10.922-4.172,15.094,0C267.694,103.281,267.694,110.031,263.539,114.202z"/>
</g>
<path style="fill:#656D78;" d="M405.314,202.653H106.668c-29.405,0-53.342,23.921-53.342,53.327v106.66
	c0,29.405,23.937,53.342,53.342,53.342h298.646c29.406,0,53.327-23.937,53.327-53.342V255.98
	C458.641,226.574,434.72,202.653,405.314,202.653z"/>
<path style="fill:#434A54;" d="M298.396,255.979h-85.325c-5.891,0-10.671-4.766-10.671-10.656s4.781-10.672,10.671-10.672h85.325
	c5.891,0,10.672,4.781,10.672,10.672S304.287,255.979,298.396,255.979z"/>
</svg>