<?xml version="1.0" encoding="iso-8859-1"?>
<!-- Uploaded to: SVG Repo, www.svgrepo.com, Generator: SVG Repo Mixer Tools -->
<svg height="800px" width="800px" version="1.1" id="Layer_1" xmlns="http://www.w3.org/2000/svg" xmlns:xlink="http://www.w3.org/1999/xlink" 
	 viewBox="0 0 511.984 511.984" xml:space="preserve">
<path style="fill:#656D78;" d="M501.328,85.091H10.672c-5.89,0-10.671,4.781-10.671,10.672v127.949
	c0,5.891,4.781,10.656,10.671,10.656h490.656c5.891,0,10.656-4.766,10.656-10.656V95.763
	C511.984,89.872,507.219,85.091,501.328,85.091z"/>
<path style="fill:#434A54;" d="M245.336,159.729H0v21.327h245.336c5.89,0,10.656-4.766,10.656-10.655
	C255.992,164.511,251.226,159.729,245.336,159.729z"/>
<path style="fill:#A0D468;" d="M447.924,159.729c0,11.781-9.547,21.327-21.328,21.327c-11.766,0-21.328-9.546-21.328-21.327
	s9.562-21.327,21.328-21.327C438.377,138.402,447.924,147.948,447.924,159.729z"/>
<path style="fill:#434A54;" d="M509.484,88.903l-53.717-63.982c-2.031-2.406-5.016-3.812-8.172-3.812H63.733
	c-3.172,0-6.172,1.421-8.203,3.858L2.469,88.95c-2.641,3.172-3.203,7.594-1.453,11.344c1.766,3.734,5.516,6.125,9.656,6.125h490.656
	c4.141,0,7.906-2.406,9.656-6.156C512.734,96.497,512.156,92.075,509.484,88.903z"/>
<polygon style="opacity:0.2;enable-background:new    ;" points="255.992,23.889 507.734,86.794 484.359,58.982 332.881,21.109 
	234.665,21.109 234.665,39.218 234.665,61.201 234.665,106.419 255.992,106.419 255.992,66.529 415.58,106.419 501.328,106.419 
	501.344,106.419 503.062,106.278 255.992,44.561 "/>
<path style="fill:#656D78;" d="M430.642,432.674c-1.875-42.671-38.264-138.23-39.811-142.277l-1.219-3.187l-8.828-5.844v-13.359
	l-64.826-19.499l-20.406,13.641h-79.106l-20.406-13.641l-64.826,19.499v13.359l-8.828,5.844l-1.219,3.187
	c-1.547,4.047-37.936,99.606-39.811,142.277c-1.141,26.14,10.828,40.467,21.077,47.873c10.75,7.781,21.609,9.469,22.812,9.625
	l4.984,0.688l3.703-3.391c0.125-0.125,13.625-12.516,28.874-25.093c26.952-22.202,35.108-25.062,36.499-25.405h113.371
	c1.406,0.344,9.562,3.203,36.514,25.405c15.25,12.577,28.734,24.968,28.875,25.093l3.703,3.406l4.984-0.703
	c1.203-0.156,12.062-1.844,22.811-9.625C419.814,473.14,431.783,458.813,430.642,432.674z"/>
<circle style="fill:#CCD1D9;" cx="181.352" cy="319.682" r="21.328"/>
<path style="fill:#AAB2BC;" d="M181.354,351.66c-17.64,0-31.983-14.343-31.983-31.982c0-17.641,14.343-31.984,31.983-31.984
	s31.999,14.344,31.999,31.984C213.353,337.317,198.994,351.66,181.354,351.66z M181.354,309.006
	c-5.875,0-10.656,4.797-10.656,10.672c0,5.874,4.781,10.655,10.656,10.655c5.891,0,10.671-4.781,10.671-10.655
	C192.025,313.803,187.244,309.006,181.354,309.006z"/>
<path style="fill:#CCD1D9;" d="M309.318,383.644c0,11.78-9.547,21.327-21.328,21.327c-11.779,0-21.326-9.547-21.326-21.327
	c0-11.766,9.547-21.312,21.326-21.312C299.771,362.332,309.318,371.879,309.318,383.644z"/>
<path style="fill:#AAB2BC;" d="M287.99,415.642c-17.639,0-31.998-14.358-31.998-31.998c0-17.625,14.359-31.984,31.998-31.984
	c17.641,0,31.984,14.359,31.984,31.984C319.974,401.284,305.631,415.642,287.99,415.642z M287.99,372.988
	c-5.891,0-10.67,4.781-10.67,10.656c0,5.891,4.779,10.671,10.67,10.671c5.875,0,10.656-4.78,10.656-10.671
	C298.646,377.769,293.865,372.988,287.99,372.988z"/>
<path style="fill:#A0D468;" d="M338.178,348.535c-4.156,4.172-10.922,4.172-15.078,0c-4.172-4.155-4.172-10.905,0-15.077
	c4.156-4.156,10.922-4.156,15.078,0C342.332,337.63,342.332,344.38,338.178,348.535z"/>
<path style="fill:#ED5564;" d="M359.504,327.208c-4.172,4.172-10.922,4.172-15.078,0c-4.17-4.155-4.17-10.905,0-15.077
	c4.156-4.156,10.906-4.156,15.078,0C363.66,316.303,363.66,323.053,359.504,327.208z"/>
<path style="fill:#FFCE54;" d="M338.178,305.881c-4.156,4.172-10.922,4.172-15.078,0c-4.172-4.156-4.172-10.906,0-15.078
	c4.156-4.155,10.922-4.155,15.078,0C342.332,294.974,342.347,301.724,338.178,305.881z"/>
<path style="fill:#5D9CEC;" d="M316.849,327.208c-4.156,4.172-10.922,4.172-15.078,0c-4.156-4.155-4.156-10.905,0-15.077
	c4.172-4.156,10.922-4.156,15.078,0C321.021,316.303,321.021,323.053,316.849,327.208z"/>
<g>
	<path style="fill:#CCD1D9;" d="M213.353,415.642c-5.891,0-10.671-4.781-10.671-10.671v-42.64c0-5.891,4.781-10.672,10.671-10.672
		s10.656,4.781,10.656,10.672v42.64C224.009,410.861,219.243,415.642,213.353,415.642z"/>
	<path style="fill:#CCD1D9;" d="M234.665,394.315h-42.64c-5.89,0-10.671-4.78-10.671-10.671c0-5.875,4.781-10.656,10.671-10.656
		h42.64c5.89,0,10.671,4.781,10.671,10.656C245.336,389.535,240.555,394.315,234.665,394.315z"/>
</g>
</svg>