<?xml version="1.0" ?>
<!-- Uploaded to: SVG Repo, www.svgrepo.com, Generator: SVG Repo Mixer Tools -->
<svg width="800px" height="800px" viewBox="0 0 64 64" xmlns="http://www.w3.org/2000/svg">
<defs>
<style>.cls-1{fill:#ab7c73;}.cls-2{fill:#6e5b5e;}</style>
</defs>
<g id="main">
<path class="cls-1" d="M61.94,25.75a3,3,0,0,0-2.43-.68L48,27a8.94,8.94,0,0,1-6.82-1.65L26.76,14.59a3,3,0,0,0-3.52,0L19.6,17.2A3.06,3.06,0,0,0,19.4,22l.74.65H11a1,1,0,0,1-1-1v-2a3,3,0,0,0-3-3H4a3,3,0,0,0-3,3V39.85a1,1,0,0,0,1,1H55a1,1,0,0,0,.9-1.44l5.48-2.85a1,1,0,0,0,.62.24,1,1,0,0,0,1-1V28.07A3.06,3.06,0,0,0,61.94,25.75Z"/>
<path class="cls-2" d="M62.74,35.12a1,1,0,0,0-1.15-.24,51.46,51.46,0,0,1-18.59,4H2a1,1,0,0,0-1,1v7.09a3,3,0,0,0,3,3H15a3,3,0,0,0,3-3,1,1,0,0,1,1-1h6.39a1,1,0,0,1,.56.17l3.48,2.35a8.89,8.89,0,0,0,5,1.53c9.56,0,9.12,0,9.12,0,2.56,0,12.11-.9,19.33-13.69A1,1,0,0,0,62.74,35.12Z"/>
<path class="cls-2" d="M39.71,24.26,26.76,14.59a3,3,0,0,0-3.52,0L19.6,17.2A3.06,3.06,0,0,0,19.4,22c2.11,1.79,6.89,6.3,5.67,9.39a1,1,0,0,0,.33,1.18l4,3a1,1,0,0,0,.83.18c6.6-1.58,8.85-5.34,9.87-10.51A1,1,0,0,0,39.71,24.26Z"/>
</g>
</svg>